<?xml version="1.0" encoding="UTF-8"?>
<svg xmlns="http://www.w3.org/2000/svg" id="Layer_2" viewBox="0 0 290.7707 139.796">
  <defs>
    <style>.cls-1,.cls-2{fill:#fff;}.cls-2{stroke:#fff;stroke-miterlimit:10;stroke-width:.2935px;}</style>
  </defs>
  <g id="Layer_1-2">
    <g>
      <path class="cls-1" d="m64.2472,96.6779h29.2368v-60.3162c-9.9503-.7371-19.655-1.7198-29.2368-2.7026v63.0187Zm-50.3658,3.8082c0,4.1767-1.4741,7.6163-3.931,10.196C7.4934,113.2618,4.0539,115.1044,0,115.7186l10.5645,24.0773c10.4417-2.334,18.6722-6.3879,24.2002-12.1615,5.6508-5.7737,8.4762-13.1443,8.4762-21.989V30.9566c-10.196-1.3513-20.0235-2.8254-29.3596-4.5452v74.0746ZM64.2472,23.4631c9.7047.6142,19.5321,1.1056,29.2368,1.5969V2.0884h-29.2368v21.3748Zm-50.3658-3.931c9.8275.8599,19.5321,1.7198,29.3596,2.4569V2.0884H13.8813v17.4437Zm276.8893,25.92c0-6.0193-.8599-12.53-2.9482-18.6722-1.7198-5.2823-4.4224-10.4417-8.3534-14.6184-3.3168-3.8081-7.6163-7.1249-12.7757-9.0904-4.7909-1.9655-10.4417-3.0711-16.8296-3.0711-13.7584,0-24.6915,5.2823-32.4307,13.39-3.0711,3.1939-5.528,6.8792-7.6163,10.8102,12.1615-.8599,24.4459-1.8427,36.7302-3.194,10.0732.1229,19.2864,2.8254,19.655,14.4955-19.4092,1.9655-40.047,3.3168-61.5446,3.931-.4913,2.9482-.8599,6.0193-.8599,9.0904-.1229,12.8986,4.2995,25.7972,13.5128,35.0104,7.862,8.1077,19.5321,13.5128,35.0104,13.8813,6.5107.2457,13.0214-.3685,19.0407-1.3513,6.5107-1.1056,12.4072-2.9482,16.8296-4.7909v-.3685l-14.7412-19.1636c-2.8254.8599-5.7737,1.4741-8.8447,1.7198-3.0711.3685-6.3879.4914-9.3361.4914-3.4396,0-6.7564-.3685-9.7047-1.3513-2.8254-.8599-5.4051-2.2112-7.4935-3.931-1.4741-1.2285-2.7025-2.7026-3.6853-4.2995-1.1056-1.597-1.7198-3.4396-2.2112-5.528l-.1229-.6142,58.2278-3.931c.3685-2.2112.4914-6.5107.4914-8.8448Zm-144.9554-19.2864l-2.5797-8.1077-5.1594-16.0925h-31.6937l8.9676,23.8316c7.0021.1229,14.0042.3685,21.0062.3685,3.194,0,6.2651,0,9.459,0ZM173.455,1.9655c-2.5797,8.2305-5.0366,16.2153-7.4934,24.0773-1.4741,4.5452-2.8254,8.9676-4.2996,13.39-1.8427,5.8965-3.8082,11.6701-5.7736,17.5666h-.2457c-.3686-1.3513-.8599-2.8254-1.2285-4.1766-.3685-1.4741-.8599-2.9483-1.3513-4.2996l-2.9483-9.3361c-4.2995-.1228-8.7219-.2457-13.0214-.4913-5.7737-.2457-11.4245-.4914-17.1981-.8599l21.8661,58.842h26.657l21.8661-56.9994,5.528-14.4955,8.8447-23.2174h-31.2023Z"></path>
      <g>
        <g>
          <path class="cls-1" d="m90.5402,125.9067v-14.9219h2.8888v14.9219h-2.8888Z"></path>
          <path class="cls-1" d="m103.9575,126.2651c-4.5841,0-7.7596-2.9366-7.7596-7.7835,0-4.823,3.1516-7.8551,7.783-7.8551,1.8147,0,3.9395.4778,5.2769,1.2891l-.9312,2.5314c-1.313-.8123-2.8176-1.314-4.2979-1.314-2.9605,0-4.8942,2.0297-4.8942,5.253,0,3.3427,1.8381,5.4193,4.8942,5.4193,1.0507,0,2.0775-.2618,2.8176-.5963v-2.8649h-3.9156v-2.4597h6.6133v6.9722c-1.5997.9069-3.7006,1.4086-5.5865,1.4086Z"></path>
          <path class="cls-1" d="m122.8409,110.9848h2.7698v15.0652h-3.1038l-7.1389-10.9829v10.8395h-2.7694v-14.9219h3.1755l7.0668,10.8634v-10.8634Z"></path>
          <path class="cls-1" d="m129.0949,125.9067v-14.9219h2.8888v14.9219h-2.8888Z"></path>
          <path class="cls-1" d="m142.13,113.5392v12.3675h-2.8888v-12.3675h-4.9902v-2.5544h12.8692v2.5544h-4.9902Z"></path>
          <path class="cls-1" d="m149.3391,125.9067v-14.9219h10.1706v2.4588h-7.3057v3.7489h5.9927v2.4588h-5.9927v3.7967h7.3057v2.4588h-10.1706Z"></path>
        </g>
        <g>
          <path class="cls-1" d="m197.9311,112.7995c-1.0502-.6689-2.626-1.1467-4.2018-1.1467-3.2472,0-5.8493,2.412-5.8493,6.8288,0,4.2018,2.3393,6.7562,5.8971,6.7562,1.6236,0,3.1277-.5007,4.1302-1.2175l.2389.9317c-1.0034.668-2.5782,1.1936-4.393,1.1936-4.2496,0-6.9005-2.9605-6.9005-7.664,0-4.7274,2.9127-7.7357,6.9244-7.7357,1.9332,0,3.509.6211,4.4646,1.1936l-.3106.8601Z"></path>
          <path class="cls-1" d="m211.5868,125.9067v-7.0429h-9.3115v7.0429h-1.0024v-14.9219h1.0024v6.9951h9.3115v-6.9951h1.0024v14.9219h-1.0024Z"></path>
        </g>
        <g>
          <path class="cls-1" d="m167.3143,111.9156v13.9911h-1.0029v-13.9911h-5.2764v-.9308h11.5558v.9308h-5.2764Z"></path>
          <path class="cls-1" d="m175.2153,125.9067v-14.9219h8.5475v.9069h-7.5446v6.1121h6.3032v.8839h-6.3032v6.1121h7.5446v.9069h-8.5475Z"></path>
        </g>
        <path class="cls-2" d="m217.0029,111.1856v-.2008h-1.99v.2008h.8916v2.1469h.2134v-2.1469h.885Zm2.8377,2.1469l-.1383-2.3477h-.3138l-.8098,2.1343h-.0187l-.7407-2.1343h-.3265l-.1443,2.3477h.2134l.113-2.0778h.0187l.7281,2.0778h.2699l.8038-2.0778h.0187l.119,2.0778h.2074Z"></path>
      </g>
      <g>
        <path class="cls-1" d="m69.7519,124.8361c-.6665.8076-1.4746,1.373-2.626,1.373-1.6772,0-2.8892-1.1514-2.8892-2.626,0-1.7168,1.2524-3.1719,5.5151-3.3135v-.2217c0-1.2529-.5249-1.7783-1.8584-1.7783-.9497,0-2.1011.4248-3.0913.9902l-.4844-1.8789c.9087-.5654,2.3633-1.0908,3.8989-1.0908,2.8687,0,3.98,1.2725,3.9194,3.8379v3.334c0,.707.1211.8076.8281.8486l-.1816,1.7979c-1.7778.2021-2.6064-.3438-2.9497-1.2725h-.0811Zm0-3.3135c-2.3232.2822-3.1714.7471-3.1714,1.7373,0,.707.5454,1.2119,1.3936,1.2119.7476,0,1.3535-.3438,1.7778-.8076v-2.1416Z"></path>
        <path class="cls-1" d="m80.6386,125.9064v-5.6768c0-1.374-.5454-1.8389-1.6162-1.8389-.8281,0-1.5962.4248-2.0605.8691v6.6465h-2.3838v-9.2734l2.3838-.3232v1.4756c.8281-.9092,1.9395-1.4951,3.0708-1.4951,1.8789,0,2.9897,1.2119,2.9897,3.2119v6.4043h-2.3838Z"></path>
      </g>
      <g>
        <path class="cls-1" d="m226.1566,126.2296c-1.2129,0-2.6875-.3438-3.6162-.8691l.5244-1.8584c.9297.5254,2.1221.8691,3.1523.8691.9287,0,1.5352-.3838,1.5352-1.0303,0-.7275-.7881-.9902-1.8789-1.2529-1.7578-.4043-3.1514-1.1309-3.1514-2.8887s1.4746-2.9092,3.7168-2.9092c1.1514,0,2.5254.3027,3.3945.7471l-.5254,1.8584c-.9092-.4639-2.1016-.7676-2.9297-.7676-.8682,0-1.3936.3232-1.3936.9297,0,.707.7881.9492,1.8789,1.2119,1.7773.4248,3.1719,1.1113,3.1719,2.9297,0,1.7373-1.4951,3.0303-3.8789,3.0303Z"></path>
        <path class="cls-1" d="m236.1342,126.2091c-2.7275,0-4.707-1.8584-4.707-4.9492,0-3.0713,2.0811-4.9902,4.8281-4.9902s4.707,1.8994,4.707,4.9697c0,3.0508-2.1006,4.9697-4.8281,4.9697Zm.04-8.0205c-1.5557,0-2.4043,1.2529-2.4043,3.0508,0,1.7783.8896,3.0303,2.4453,3.0303,1.5352,0,2.3838-1.2119,2.3838-3.0098s-.8887-3.0713-2.4248-3.0713Z"></path>
        <path class="cls-1" d="m242.9604,125.9064v-13.4951l2.3838-.3232v13.8184h-2.3838Z"></path>
        <path class="cls-1" d="m250.1918,116.5929v5.6768c0,1.374.5654,1.8184,1.5752,1.8184.8486,0,1.5967-.3838,2.041-.8076v-6.6875h2.3838v9.2529l-2.3838.3232v-1.374c-.7676.8281-1.8789,1.4141-3.0713,1.4141-1.8184,0-2.9287-1.2119-2.9287-3.2119v-6.4043h2.3838Z"></path>
        <path class="cls-1" d="m262.0268,126.2091c-2.0801,0-3.1719-.9092-3.0908-3.1514l.1416-4.3838-1.4541-.1621.0605-1.5146,1.4541-.4648.04-2.0605h2.3037l-.041,2.1816h2.627l-.0605,1.96h-2.707l-.1221,4.3027c-.0195.8691.4248,1.2734,1.2324,1.2734.4854,0,.9697-.1221,1.4551-.2832l.3232,1.9395c-.707.2422-1.3535.3633-2.1621.3633Z"></path>
        <path class="cls-1" d="m267.1576,114.8956c-.9297,0-1.4551-.5654-1.4551-1.4336,0-.8486.5254-1.4346,1.4551-1.4346.9492,0,1.4746.5859,1.4746,1.4346,0,.8682-.5254,1.4336-1.4746,1.4336Zm-1.1924,11.0107v-9.2529l2.3838-.3438v9.5967h-2.3838Z"></path>
        <path class="cls-1" d="m275.0551,126.2091c-2.7275,0-4.707-1.8584-4.707-4.9492,0-3.0713,2.0811-4.9902,4.8281-4.9902s4.707,1.8994,4.707,4.9697c0,3.0508-2.1006,4.9697-4.8281,4.9697Zm.04-8.0205c-1.5557,0-2.4033,1.2529-2.4033,3.0508,0,1.7783.8887,3.0303,2.4443,3.0303,1.5352,0,2.3838-1.2119,2.3838-3.0098s-.8887-3.0713-2.4248-3.0713Z"></path>
        <path class="cls-1" d="m287.9418,125.9064v-5.6768c0-1.374-.5459-1.8389-1.6162-1.8389-.8291,0-1.5967.4248-2.0615.8691v6.6465h-2.3838v-9.2734l2.3838-.3232v1.4756c.8291-.9092,1.9395-1.4951,3.0713-1.4951,1.8789,0,2.9902,1.2119,2.9902,3.2119v6.4043h-2.3838Z"></path>
      </g>
    </g>
  </g>
</svg>
